<svg width="211" height="33" viewBox="0 0 211 33" fill="none" xmlns="http://www.w3.org/2000/svg">
<g clip-path="url(#clip0_227_9528)">
<path d="M118.325 29.364L118.192 22.2037L108.383 15.7325L108.311 29.3192C106.869 29.5937 105.637 29.5937 104.428 29.1511L104.494 8.44336L118.143 17.6487L118.347 8.82435L122.169 8.84115L122.18 29.364H118.325Z" fill="#49494A"/>
<path d="M187.92 20.7637L180.894 20.6797C180.701 19.5255 180.701 18.4834 180.844 17.3349L191.991 17.3573C192.565 22.7359 189.616 27.5206 184.993 29.1454C180.093 30.8711 174.879 28.6972 172.394 24.5512C169.61 19.9065 170.77 14.2253 174.741 10.8749C178.712 7.52445 184.656 7.24431 188.649 11.1606C188.075 12.1299 187.279 12.9479 186.142 13.6819C183.722 11.861 180.938 11.2335 178.447 12.6566C176.188 13.9452 174.57 16.5897 174.824 19.5311C175.128 23.0328 177.668 26.0191 181.11 26.1536C184.225 26.2768 187.473 24.0469 187.92 20.7637Z" fill="#49494A"/>
<path d="M100.313 19.0717C100.313 24.9602 95.5737 29.7281 89.7243 29.7281C83.8749 29.7281 79.1357 24.9546 79.1357 19.0717C79.1357 13.1888 83.8749 8.41528 89.7243 8.41528C95.5737 8.41528 100.313 13.1888 100.313 19.0717ZM96.6729 19.0213C96.6729 15.1722 93.5686 12.0459 89.7409 12.0459C85.9131 12.0459 82.8089 15.1666 82.8089 19.0213C82.8089 22.876 85.9131 25.9967 89.7409 25.9967C93.5686 25.9967 96.6729 22.876 96.6729 19.0213Z" fill="#49494A"/>
<path d="M147.411 19.0602C147.411 24.9431 142.672 29.7166 136.822 29.7166C130.973 29.7166 126.234 24.9487 126.234 19.0602C126.234 13.1717 130.973 8.40381 136.822 8.40381C142.672 8.40381 147.411 13.1717 147.411 19.0602ZM143.782 19.021C143.782 15.1719 140.678 12.0456 136.85 12.0456C133.022 12.0456 129.918 15.1663 129.918 19.021C129.918 22.8757 133.022 25.9964 136.85 25.9964C140.678 25.9964 143.782 22.8757 143.782 19.021Z" fill="#49494A"/>
<path d="M163.214 29.0165L159.297 22.1644C158.701 21.1166 156.563 21.4752 155.354 21.7049L155.26 29.3415C153.884 29.5376 152.874 29.5432 151.542 29.3415L151.559 8.60571L162.86 8.89706C165.655 8.96989 167.202 12.2027 167.362 14.4438C167.566 17.3404 166.113 19.7552 163.462 21.3856L167.423 29.151C166.682 29.4927 163.888 30.1819 163.219 29.0109L163.214 29.0165ZM161.728 17.8783C163.175 17.4861 163.495 15.9789 163.49 15.0489C163.484 14.1188 163.158 12.6117 161.866 12.3596C159.645 11.9169 157.502 12.0682 155.337 12.2419V18.1304C157.48 18.0968 159.535 18.4721 161.722 17.8839L161.728 17.8783Z" fill="#49494A"/>
<path d="M54.4725 21.1055C51.8986 20.2819 49.8659 20.8366 47.524 20.7301C47.2147 19.5536 47.2257 18.4834 47.4853 17.3405H58.5268C59.2117 22.5342 56.2511 27.487 51.6058 29.1398C46.5794 30.9271 41.2935 28.6412 38.8079 24.2823C36.14 19.604 37.4602 13.9788 41.4095 10.7741C45.3588 7.56928 51.2413 7.38439 55.2845 11.2447C54.6935 12.1467 53.8981 12.8919 52.7492 13.6875C50.2968 11.9114 47.5405 11.2503 45.0771 12.623C42.6136 13.9956 41.1057 16.5561 41.3929 19.604C41.6801 22.6519 43.9116 25.5709 46.9109 26.0639C49.9101 26.557 53.4175 24.8537 54.4781 21.1055H54.4725Z" fill="#49494A"/>
<path d="M74.5061 20.6124L66.2761 20.7637C65.9778 22.5678 65.9723 24.0581 66.2761 25.8958L76.4945 25.9462L76.478 29.4311L62.3378 29.4591L62.2881 8.62253L76.4945 8.61133C76.6602 9.95038 76.6381 10.9309 76.4724 12.1074L66.2761 12.1635C65.9723 14.0124 65.9778 15.4691 66.2761 17.3124L74.495 17.3852L74.5061 20.618V20.6124Z" fill="#49494A"/>
<path d="M207.854 20.6121L199.647 20.7578C199.376 22.5787 199.376 24.0466 199.652 25.9067L209.882 25.9403C210.031 27.0945 210.047 28.103 209.854 29.4421L195.708 29.4589L195.697 8.59985L209.876 8.61666C210.053 9.93891 210.036 10.9474 209.854 12.1128L199.652 12.1632C199.381 14.0289 199.381 15.4632 199.652 17.3233L207.866 17.3794V20.6177L207.854 20.6121Z" fill="#49494A"/>
<path d="M24.2371 26.0024L11.522 17.9793L0 11.2616L12.345 3.97803L12.7703 18.3435L24.922 11.256L25.038 24.6073C25.038 25.0892 24.6403 25.7727 24.2426 26.0024H24.2371Z" fill="#AAACAF"/>
<path d="M24.237 26.0024L12.2786 32.8433L11.7649 19.2679C11.7539 18.8981 11.4777 18.3322 11.5219 17.9792L24.237 26.0024Z" fill="#939597"/>
<path d="M11.5275 17.9792C11.4834 18.3321 11.7595 18.898 11.7706 19.2678L0.12704 25.6045L0 11.2559L11.5275 17.9735V17.9792Z" fill="#6E6F71"/>
<path d="M12.2837 32.843L0.126465 25.6043L11.7645 19.262L12.2837 32.843Z" fill="#49494A"/>
<path d="M14.6873 14.6175L14.6266 5.54103C14.61 2.73966 16.5929 0.711467 18.7416 0.162398C21.4481 -0.532342 23.7017 1.17089 24.602 3.18228C25.7619 5.77074 24.9168 8.48807 22.5583 9.89997L14.6818 14.6175H14.6873ZM22.8345 5.33373C22.8345 3.70893 21.5254 2.39229 19.9126 2.39229C18.2997 2.39229 16.9906 3.70893 16.9906 5.33373C16.9906 6.95853 18.2997 8.27517 19.9126 8.27517C21.5254 8.27517 22.8345 6.95853 22.8345 5.33373Z" fill="#F15C27"/>
</g>
<defs>
<clipPath id="clip0_227_9528">
<rect width="211" height="33" fill="white"/>
</clipPath>
</defs>
</svg>
