<svg width="262" height="41" viewBox="0 0 262 41" fill="none" xmlns="http://www.w3.org/2000/svg">
<g clip-path="url(#clip0_306_8468)">
<path d="M147.625 36.0898L147.46 27.2893L135.221 19.3358L135.131 36.0347C133.333 36.3721 131.796 36.3721 130.287 35.8281L130.369 10.377L147.398 21.6909L147.653 10.8452L152.422 10.8659L152.435 36.0898H147.625Z" fill="white"/>
<path d="M234.456 25.5198L225.69 25.4165C225.449 23.9979 225.449 22.7171 225.628 21.3055L239.534 21.333C240.251 27.9437 236.571 33.8244 230.803 35.8214C224.691 37.9424 218.185 35.2705 215.084 30.1748C211.611 24.4662 213.058 17.4837 218.013 13.3658C222.899 9.30984 230.383 8.90356 235.365 13.717C234.648 14.9083 233.656 15.9136 232.237 16.8157C229.218 14.5777 225.745 13.8065 222.637 15.5556C219.818 17.1394 217.799 20.3896 218.116 24.0048C218.495 28.3087 221.665 31.979 225.959 32.1442C229.845 32.2957 233.897 29.5551 234.456 25.5198Z" fill="white"/>
<path d="M125.153 23.4402C125.153 30.6775 119.24 36.5376 111.942 36.5376C104.644 36.5376 98.7315 30.6706 98.7315 23.4402C98.7315 16.2098 104.644 10.3428 111.942 10.3428C119.24 10.3428 125.153 16.2098 125.153 23.4402ZM120.611 23.3782C120.611 18.6474 116.738 14.805 111.963 14.805C107.187 14.805 103.314 18.6406 103.314 23.3782C103.314 28.1159 107.187 31.9514 111.963 31.9514C116.738 31.9514 120.611 28.1159 120.611 23.3782Z" fill="white"/>
<path d="M183.915 23.4265C183.915 30.6569 178.002 36.5239 170.704 36.5239C163.406 36.5239 157.494 30.6638 157.494 23.4265C157.494 16.1892 163.406 10.3291 170.704 10.3291C178.002 10.3291 183.915 16.1892 183.915 23.4265ZM179.387 23.3783C179.387 18.6475 175.514 14.8051 170.739 14.8051C165.963 14.8051 162.09 18.6407 162.09 23.3783C162.09 28.116 165.963 31.9515 170.739 31.9515C175.514 31.9515 179.387 28.116 179.387 23.3783Z" fill="white"/>
<path d="M203.631 35.6628L198.745 27.2411C198.001 25.9534 195.334 26.3941 193.824 26.6764L193.707 36.0622C191.991 36.3032 190.73 36.3101 189.069 36.0622L189.09 10.5767L203.19 10.9347C206.677 11.0243 208.606 14.9976 208.806 17.752C209.061 21.3121 207.249 24.2801 203.941 26.2839L208.882 35.8281C207.958 36.2481 204.472 37.0951 203.638 35.6559L203.631 35.6628ZM201.777 21.9732C203.583 21.4912 203.982 19.6388 203.975 18.4957C203.968 17.3526 203.562 15.5002 201.949 15.1904C199.179 14.6464 196.505 14.8323 193.804 15.0458V22.2831C196.478 22.2418 199.041 22.7031 201.77 21.9801L201.777 21.9732Z" fill="white"/>
<path d="M67.9619 25.9398C64.7506 24.9276 62.2146 25.6093 59.2927 25.4785C58.9068 24.0324 58.9205 22.7171 59.2444 21.3124H73.0201C73.8746 27.6958 70.1809 33.7831 64.3853 35.8146C58.1143 38.0112 51.5193 35.2017 48.4182 29.8443C45.0897 24.0944 46.7367 17.1807 51.664 13.2418C56.5913 9.30297 63.9305 9.07572 68.9749 13.8203C68.2376 14.9289 67.2452 15.8448 65.8118 16.8226C62.7521 14.6397 59.3133 13.8272 56.2398 15.5143C53.1663 17.2014 51.285 20.3483 51.6433 24.0944C52.0017 27.8404 54.7858 31.4281 58.5277 32.0341C62.2697 32.6401 66.6457 30.5467 67.9688 25.9398H67.9619Z" fill="white"/>
<path d="M92.9566 25.3341L82.6886 25.52C82.3165 27.7373 82.3096 29.569 82.6886 31.8277L95.4375 31.8897L95.4168 36.1728L77.7751 36.2073L77.7131 10.5978L95.4375 10.584C95.6442 12.2298 95.6166 13.4348 95.4099 14.8809L82.6886 14.9498C82.3096 17.2222 82.3165 19.0126 82.6886 21.2781L92.9428 21.3677L92.9566 25.341V25.3341Z" fill="white"/>
<path d="M259.326 25.3337L249.086 25.5127C248.748 27.7507 248.748 29.5549 249.093 31.8411L261.855 31.8824C262.041 33.3009 262.062 34.5404 261.821 36.1862L244.172 36.2069L244.158 10.5698L261.848 10.5905C262.069 12.2156 262.048 13.4551 261.821 14.8874L249.093 14.9494C248.755 17.2425 248.755 19.0053 249.093 21.2915L259.34 21.3604V25.3406L259.326 25.3337Z" fill="white"/>
<path opacity="0.8" d="M15.3262 23.3232L0 14.4883V32.165L15.3262 23.3232Z" fill="white"/>
<path opacity="0.4" d="M15.3262 23.3232L30.6456 32.165V14.4883L15.3262 23.3232Z" fill="white"/>
<path opacity="0.6" d="M15.3262 23.3232L15.3055 40.9999L30.6387 32.1788L15.3262 23.3232Z" fill="white"/>
<path opacity="0.4" d="M15.3262 23.3232L15.34 5.63965L0.00689697 14.4677L15.3262 23.3232Z" fill="white"/>
<path d="M15.34 23.3232L0.0137939 32.1581L15.3331 40.9999L15.34 23.3232Z" fill="white"/>
<path d="M18.3239 17.9658L18.2481 6.81025C18.2275 3.36719 20.7014 0.874408 23.3822 0.199567C26.7589 -0.654313 29.5705 1.43907 30.6938 3.91119C32.141 7.09258 31.0866 10.4324 28.144 12.1677L18.3171 17.9658H18.3239ZM28.4886 6.55546C28.4886 4.55849 26.8554 2.94025 24.8431 2.94025C22.8309 2.94025 21.1976 4.55849 21.1976 6.55546C21.1976 8.55244 22.8309 10.1707 24.8431 10.1707C26.8554 10.1707 28.4886 8.55244 28.4886 6.55546Z" fill="white"/>
</g>
<defs>
<clipPath id="clip0_306_8468">
<rect width="262" height="41" fill="white"/>
</clipPath>
</defs>
</svg>
