<svg width="125" height="34" viewBox="0 0 125 34" fill="none" xmlns="http://www.w3.org/2000/svg">
<g clip-path="url(#clip0_306_8444)">
<mask id="mask0_306_8444" style="mask-type:luminance" maskUnits="userSpaceOnUse" x="0" y="0" width="125" height="34">
<path d="M125 0H0V34H125V0Z" fill="white"/>
</mask>
<g mask="url(#mask0_306_8444)">
<path d="M39.0431 9.40625L33.5176 16.1372V9.40625H31.5369V24.2402H33.5176V16.6361L39.039 24.2402H41.5138L35.5758 16.3763L41.5285 9.40625H39.0431Z" fill="white"/>
<mask id="mask1_306_8444" style="mask-type:luminance" maskUnits="userSpaceOnUse" x="0" y="0" width="125" height="34">
<path d="M125 0H0V34H125V0Z" fill="white"/>
</mask>
<g mask="url(#mask1_306_8444)">
<path d="M50.58 20.6729L50.6554 17.1535C50.6554 16.2617 50.6554 15.4178 50.423 14.8004C49.9435 13.6903 48.9008 13.1021 47.4058 13.1021C45.7768 13.1021 44.24 13.5843 42.8371 14.5385L42.7638 14.5884L43.6998 15.8564L43.7689 15.794C44.4535 15.1912 45.9569 14.5426 47.1043 14.5426C47.7659 14.5426 48.1198 14.763 48.4757 15.1164C48.7521 15.3908 48.8275 15.7317 48.8275 16.7024V17.3656H48.1596C44.5666 17.3656 42.4225 18.8228 42.4225 21.2653C42.4225 22.0053 42.678 24.4167 45.9736 24.4167C47.165 24.4167 48.0025 24.0508 49.0159 23.0759C49.2127 23.7972 49.7467 24.346 50.4711 24.5622L50.5297 24.5788L51.4447 23.2567L51.3673 23.211C50.6386 22.7765 50.5067 22.3483 50.58 20.6666M48.8275 21.4711C48.2894 22.4481 47.3137 23.0551 46.2751 23.0551C45.0649 23.0551 44.4766 22.446 44.4766 21.1946C44.4766 19.4942 45.5884 18.7355 48.0842 18.7355C48.2894 18.7355 48.6223 18.7355 48.9008 18.7937L48.8275 21.4732V21.4711Z" fill="white"/>
<path d="M66.5829 14.6631L67.0101 13.2226H64.2693C64.2755 11.9899 64.4179 10.6262 64.4933 10.2562L64.5184 10.1294L62.59 10.5451V10.6137C62.59 10.7572 62.567 11.0711 62.5398 11.4369C62.4979 11.9961 62.4456 12.6842 62.4414 13.2226H61.0092V14.6631H62.4414V21.9117C62.4414 23.0343 62.7806 23.7036 63.5427 24.0819C63.9719 24.2961 64.4263 24.3896 65.0126 24.3896C65.7726 24.3896 66.3861 24.2441 66.9389 23.9302L66.9933 23.899L66.7316 22.685L66.6332 22.7349C66.3254 22.8887 66.0302 22.9511 65.6156 22.9511C64.6168 22.9511 64.3446 22.631 64.3446 21.4648V14.6652H66.585L66.5829 14.6631Z" fill="white"/>
<path d="M73.4569 20.5357C73.2705 21.0429 73.1407 21.5585 73.0528 21.8994C73.0214 22.022 72.992 22.1343 72.969 22.2154C72.9188 22.0615 72.8413 21.783 72.7596 21.494C72.6759 21.1947 72.5817 20.8538 72.4853 20.5378L69.9749 13.1333L68.0716 13.5449L71.9682 24.3149H73.7458L77.9104 13.5615L77.9544 13.4472H75.9611L73.4548 20.5357H73.4569Z" fill="white"/>
<path d="M83.2684 12.9982C81.92 12.9982 80.8375 13.4971 79.9623 14.5261C79.0264 15.686 78.6621 16.8355 78.6621 18.6191C78.6621 22.1779 80.5151 24.3897 83.4946 24.3897C84.8137 24.3897 86.1181 23.9033 87.1671 23.0219L87.2236 22.9741L86.451 21.7809L86.3756 21.8474C85.6407 22.5043 84.843 22.7974 83.7961 22.7974C83.0025 22.7974 81.9138 22.5833 81.227 21.5605C80.8878 21.0887 80.7161 20.3258 80.7161 19.2905V19.0016H87.4979V18.6919C87.4979 16.189 87.2215 15.1705 86.2668 14.1436C85.5214 13.4035 84.4556 12.9961 83.2663 12.9961M83.0423 14.5884C83.8442 14.5884 84.5666 14.946 84.9288 15.5218V15.5259C85.2994 16.0373 85.4334 16.6942 85.3727 17.7107H80.6428C80.7349 15.6964 81.585 14.5884 83.0402 14.5884" fill="white"/>
<path d="M106.503 13.4453H104.162L100.067 18.1142V11.1379C100.067 9.63708 99.8388 8.72035 99.7571 8.55613L99.7278 8.5L97.8957 8.83052L97.946 8.93238C98.0067 9.05503 98.2391 9.77635 98.2391 11.0652V24.2424H100.067V18.2265L104.964 24.2112L104.99 24.2424H107.477L102.205 18.1745L106.503 13.4495V13.4453Z" fill="white"/>
<path d="M112.414 12.9982C111.066 12.9982 109.983 13.4971 109.106 14.5261C108.17 15.686 107.806 16.8335 107.806 18.6191C107.806 22.1779 109.657 24.3897 112.638 24.3897C113.957 24.3897 115.262 23.9033 116.311 23.0219L116.367 22.9741L115.593 21.7809L115.517 21.8474C114.78 22.5043 113.985 22.7974 112.936 22.7974C112.142 22.7974 111.053 22.5833 110.366 21.5605C110.027 21.0887 109.856 20.3258 109.856 19.2905V19.0016H116.637V18.6919C116.637 16.189 116.361 15.1705 115.406 14.1436C114.661 13.4035 113.595 12.9961 112.408 12.9961M112.263 14.5884C113.065 14.5884 113.788 14.946 114.15 15.5197C114.449 16.0415 114.583 16.7004 114.59 17.7107H109.866C109.958 15.6964 110.808 14.5884 112.263 14.5884Z" fill="white"/>
<path d="M123.365 22.7328C123.057 22.8867 122.762 22.949 122.347 22.949C121.348 22.949 121.076 22.6289 121.076 21.4627V14.6631H123.314L123.742 13.2226H121.001C121.007 11.992 121.152 10.6262 121.225 10.2562L121.25 10.1294L119.322 10.5451V10.6137C119.322 10.7572 119.299 11.0711 119.271 11.4369C119.229 11.9961 119.177 12.6842 119.173 13.2226H117.741V14.6631H119.173V21.9117C119.173 23.0343 119.512 23.7036 120.274 24.0819C120.704 24.294 121.158 24.3896 121.744 24.3896C122.504 24.3896 123.118 24.2441 123.67 23.9302L123.725 23.899L123.463 22.685L123.365 22.7328Z" fill="white"/>
<path d="M58.4778 13.021C57.2802 13.0688 56.0992 13.7091 55.3392 14.7089C55.2848 14.0292 55.0398 13.3515 54.9644 13.2018L54.933 13.1395L53.1072 13.6342L53.1533 13.7257C53.2391 13.8961 53.5218 14.5634 53.5218 15.9333V24.2483H55.3497V17.5049C55.3497 16.6359 55.4167 16.3491 55.9234 15.8481C56.4343 15.4136 57.1943 15.106 57.8601 15.0644C58.1972 15.0436 58.8023 15.1081 59.0369 15.1912L59.1143 15.2182L59.9372 13.1769L59.8346 13.1582C59.6189 13.1187 58.9091 13.0064 58.4799 13.0252" fill="white"/>
<path d="M95.1738 13.021C93.9761 13.0688 92.7952 13.7091 92.0352 14.7089C91.9807 14.0292 91.7358 13.3515 91.6583 13.2018L91.6269 13.1395L89.8011 13.6342L89.8472 13.7257C89.933 13.8961 90.2157 14.5634 90.2157 15.9333V24.2483H92.0436V17.5049C92.0436 16.6359 92.1106 16.3491 92.6173 15.8481C93.1281 15.4136 93.8882 15.106 94.554 15.0644C94.8911 15.0436 95.4962 15.1081 95.7307 15.1912L95.8082 15.2182L96.6311 13.1769L96.5285 13.1582C96.3128 13.1187 95.603 13.0064 95.1717 13.0252" fill="white"/>
<path d="M22.2278 0.559082H3.23074C2.27806 0.559082 1.50336 1.32614 1.50336 2.27405V13.8402C2.99414 12.7135 4.85972 11.1399 8.22656 11.9631C11.1265 12.674 11.7588 14.8941 16.3484 17.4156C19.1562 18.9602 21.7923 17.769 23.9552 16.5218V2.27405C23.9552 1.32822 23.1826 0.559082 22.2278 0.559082Z" fill="white"/>
<path d="M17.8329 22.5731C16.8865 22.4588 16.1495 22.1345 15.4271 21.6689C13.8191 20.6836 12.2781 19.0725 9.00126 17.3846C6.39029 16.1249 3.84213 17.0852 1.50963 18.4052C1.50963 18.4052 1.50963 18.4052 1.50754 18.4052V31.3725C1.50754 32.3183 2.28015 33.0874 3.23492 33.0874H22.232C23.1847 33.0874 23.9594 32.3204 23.9594 31.3725V20.802C21.9326 21.9557 19.9853 22.8933 17.8371 22.5752" fill="white"/>
</g>
</g>
</g>
<defs>
<clipPath id="clip0_306_8444">
<rect width="125" height="34" fill="white"/>
</clipPath>
</defs>
</svg>
